<?xml version="1.0" encoding="utf-8"?>
<!-- Generator: Adobe Illustrator 18.0.0, SVG Export Plug-In . SVG Version: 6.00 Build 0)  -->
<!DOCTYPE svg PUBLIC "-//W3C//DTD SVG 1.1//EN" "http://www.w3.org/Graphics/SVG/1.1/DTD/svg11.dtd">
<svg version="1.1" id="Calque_1" xmlns="http://www.w3.org/2000/svg" xmlns:xlink="http://www.w3.org/1999/xlink" x="0px" y="0px"
	 viewBox="0 20.7 27 27.3" enable-background="new 0 20.7 27 27.3" xml:space="preserve">
<title>favourite 31</title>
<g>
	<path fill="#EFD358" d="M19.1,32.6c0-0.1-0.1-0.2-0.3-0.2h-3.4L13.9,29c0-0.1-0.1-0.2-0.3-0.2s-0.2,0.1-0.3,0.2l-1.6,3.4H8.4
		c-0.1,0-0.2,0.1-0.3,0.2c0,0.1,0,0.2,0.1,0.3l2.5,2.6l-1,4c0,0.1,0,0.2,0.1,0.3c0.1,0.1,0.2,0.1,0.3,0l3.5-2l3.5,2c0,0,0.1,0,0.1,0
		c0.1,0,0.1,0,0.2-0.1c0.1-0.1,0.1-0.2,0.1-0.3l-1-4l2.5-2.6C19.2,32.8,19.2,32.7,19.1,32.6z"/>
</g>
</svg>
