<svg width="266" height="61" viewBox="0 0 266 61" fill="none" xmlns="http://www.w3.org/2000/svg">
<path d="M19.008 30.552V47H15.808V30.552L0.832 4.76H4.608L17.408 27.224L30.208 4.76H33.984L19.008 30.552ZM49.3175 14.36C54.0535 14.36 57.7655 15.8533 60.4535 18.84C63.1842 21.784 64.5495 25.8373 64.5495 31C64.5495 36.1627 63.1842 40.2373 60.4535 43.224C57.7655 46.168 54.0535 47.64 49.3175 47.64C44.5815 47.64 40.8482 46.168 38.1175 43.224C35.4295 40.2373 34.0855 36.1627 34.0855 31C34.0855 25.8373 35.4295 21.784 38.1175 18.84C40.8482 15.8533 44.5815 14.36 49.3175 14.36ZM49.3175 17.112C45.5628 17.112 42.6188 18.3493 40.4855 20.824C38.3522 23.2987 37.2855 26.6907 37.2855 31C37.2855 35.3093 38.3522 38.7013 40.4855 41.176C42.6188 43.6507 45.5628 44.888 49.3175 44.888C53.0722 44.888 56.0162 43.6507 58.1495 41.176C60.2828 38.7013 61.3495 35.3093 61.3495 31C61.3495 26.6907 60.2828 23.2987 58.1495 20.824C56.0162 18.3493 53.0722 17.112 49.3175 17.112ZM100.444 15V47H97.5635L97.4355 40.664C96.3688 42.9253 94.7688 44.6533 92.6355 45.848C90.5022 47.0427 87.9848 47.64 85.0835 47.64C81.5848 47.64 78.7902 46.68 76.6995 44.76C74.6088 42.7973 73.5635 39.9173 73.5635 36.12V15H76.7635V35.352C76.7635 41.6667 79.7075 44.824 85.5955 44.824C87.9422 44.824 89.9902 44.312 91.7395 43.288C93.5315 42.264 94.8968 40.8773 95.8355 39.128C96.7742 37.3787 97.2435 35.4587 97.2435 33.368V15H100.444Z" fill="white"/>
<path d="M127.053 4.12C130.978 4.12 134.349 4.78133 137.165 6.104C139.981 7.384 142.456 9.432 144.589 12.248L138.509 18.2C137.4 15.896 135.928 14.1893 134.093 13.08C132.258 11.928 129.933 11.352 127.117 11.352C124.557 11.352 122.573 11.8427 121.165 12.824C119.8 13.7627 119.117 15.0213 119.117 16.6C119.117 18.0507 119.821 19.2027 121.229 20.056C122.637 20.9093 125.176 21.656 128.845 22.296C132.685 23.0213 135.736 23.9173 137.997 24.984C140.258 26.0507 141.901 27.3947 142.925 29.016C143.992 30.5947 144.525 32.5787 144.525 34.968C144.525 37.5707 143.778 39.832 142.285 41.752C140.834 43.6293 138.786 45.08 136.141 46.104C133.538 47.128 130.552 47.64 127.181 47.64C122.53 47.64 118.712 47 115.725 45.72C112.781 44.3973 110.392 42.4133 108.557 39.768L113.805 33.496C115.384 36.0987 117.197 37.912 119.245 38.936C121.293 39.9173 123.832 40.408 126.861 40.408C129.592 40.408 131.661 39.9813 133.069 39.128C134.52 38.2747 135.245 37.0587 135.245 35.48C135.245 34.328 134.562 33.368 133.197 32.6C131.874 31.832 129.485 31.1067 126.029 30.424C122.061 29.6133 118.882 28.6533 116.493 27.544C114.146 26.4347 112.44 25.0693 111.373 23.448C110.306 21.8267 109.773 19.8213 109.773 17.432C109.773 14.9147 110.456 12.6533 111.821 10.648C113.186 8.6 115.17 7 117.773 5.848C120.418 4.696 123.512 4.12 127.053 4.12ZM173.81 45.016C172.786 45.8267 171.485 46.4667 169.906 46.936C168.37 47.4053 166.749 47.64 165.042 47.64C157.917 47.64 154.354 44.4187 154.354 37.976V21.528H148.53V15H154.354V7.64L163.122 5.208V15H173.49V21.528H163.122V36.568C163.122 39.512 164.594 40.984 167.538 40.984C169.415 40.984 171.058 40.3867 172.466 39.192L173.81 45.016ZM197.024 48.984C195.445 53.336 193.61 56.3867 191.52 58.136C189.472 59.8853 186.72 60.76 183.264 60.76C179.808 60.76 177.098 59.928 175.136 58.264L177.312 52.056C177.994 52.824 178.741 53.336 179.552 53.592C180.405 53.8907 181.45 54.04 182.688 54.04C184.01 54.04 185.077 53.7627 185.888 53.208C186.698 52.6533 187.381 51.6507 187.936 50.2L189.088 47.448L185.568 39.128L175.776 15H185.504L191.52 34.2L193.248 40.6L195.168 33.816L201.056 15H209.951L197.024 48.984ZM223.561 36.824C223.561 38.36 223.774 39.4267 224.201 40.024C224.67 40.6213 225.502 40.92 226.697 40.92C227.422 40.92 228.041 40.8773 228.553 40.792C229.107 40.664 229.747 40.472 230.473 40.216L229.705 46.296C229.022 46.7227 228.126 47.0427 227.017 47.256C225.907 47.512 224.819 47.64 223.753 47.64C220.638 47.64 218.355 46.8933 216.905 45.4C215.497 43.864 214.793 41.432 214.793 38.104V0.983997H223.561V36.824ZM265.246 30.872C265.246 32.0667 265.161 33.2187 264.99 34.328H242.334C243.23 38.8507 245.897 41.112 250.334 41.112C252.169 41.112 253.683 40.7707 254.878 40.088C256.073 39.4053 256.905 38.424 257.374 37.144L264.542 39.768C263.518 42.328 261.79 44.2907 259.358 45.656C256.969 46.9787 253.961 47.64 250.334 47.64C245.043 47.64 240.947 46.1893 238.046 43.288C235.145 40.344 233.694 36.248 233.694 31C233.694 25.752 235.102 21.6773 237.918 18.776C240.734 15.832 244.702 14.36 249.822 14.36C254.771 14.36 258.569 15.7893 261.214 18.648C263.902 21.5067 265.246 25.5813 265.246 30.872ZM249.758 20.824C247.625 20.824 245.918 21.4427 244.638 22.68C243.401 23.9173 242.611 25.752 242.27 28.184H257.182C256.841 25.7947 256.03 23.9813 254.75 22.744C253.47 21.464 251.806 20.824 249.758 20.824Z" fill="#77B1AF"/>
</svg>
